<?xml version="1.0" encoding="UTF-8" standalone="no"?>
<!DOCTYPE svg PUBLIC "-//W3C//DTD SVG 1.1//EN"
 "http://www.w3.org/Graphics/SVG/1.1/DTD/svg11.dtd">
<!-- Generated by graphviz version 2.43.0 (0)
 -->
<!-- Title: G Pages: 1 -->
<svg width="222pt" height="794pt"
 viewBox="0.00 0.00 222.00 794.00" xmlns="http://www.w3.org/2000/svg" xmlns:xlink="http://www.w3.org/1999/xlink">
<g id="graph0" class="graph" transform="scale(1 1) rotate(0) translate(4 790)">
<title>G</title>
<polygon fill="white" stroke="transparent" points="-4,4 -4,-790 218,-790 218,4 -4,4"/>
<g id="clust1" class="cluster">
<title>cluster_0</title>
<polygon fill="none" stroke="black" points="8,-374 8,-742 206,-742 206,-374 8,-374"/>
<text text-anchor="middle" x="107" y="-726.8" font-family="Times,serif" font-size="14.00">ASM block</text>
</g>
<g id="clust2" class="cluster">
<title>cluster_1</title>
<polygon fill="none" stroke="blue" points="27,-71 27,-366 187,-366 187,-71 27,-71"/>
<text text-anchor="middle" x="107" y="-350.8" font-family="Times,serif" font-size="14.00">add32_with_carry</text>
</g>
<!-- add &#160;&#160;&#160;(%rdi),%rdx -->
<g id="node1" class="node">
<title>add &#160;&#160;&#160;(%rdi),%rdx</title>
<polygon fill="lightgrey" stroke="black" points="33.5,-674.5 33.5,-710.5 180.5,-710.5 180.5,-674.5 33.5,-674.5"/>
<text text-anchor="middle" x="107" y="-688.8" font-family="Times,serif" font-size="14.00">add &#160;&#160;&#160;(%rdi),%rdx</text>
</g>
<!-- adc &#160;&#160;&#160;0x8(%rdi),%rdx -->
<g id="node2" class="node">
<title>adc &#160;&#160;&#160;0x8(%rdi),%rdx</title>
<polygon fill="lightgrey" stroke="black" points="21,-601.5 21,-637.5 193,-637.5 193,-601.5 21,-601.5"/>
<text text-anchor="middle" x="107" y="-615.8" font-family="Times,serif" font-size="14.00">adc &#160;&#160;&#160;0x8(%rdi),%rdx</text>
</g>
<!-- add &#160;&#160;&#160;(%rdi),%rdx&#45;&gt;adc &#160;&#160;&#160;0x8(%rdi),%rdx -->
<g id="edge1" class="edge">
<title>add &#160;&#160;&#160;(%rdi),%rdx&#45;&gt;adc &#160;&#160;&#160;0x8(%rdi),%rdx</title>
<path fill="none" stroke="black" d="M107,-674.31C107,-666.29 107,-656.55 107,-647.57"/>
<polygon fill="black" stroke="black" points="110.5,-647.53 107,-637.53 103.5,-647.53 110.5,-647.53"/>
</g>
<!-- adc &#160;&#160;&#160;0x10(%rdi),%rdx -->
<g id="node3" class="node">
<title>adc &#160;&#160;&#160;0x10(%rdi),%rdx</title>
<polygon fill="lightgrey" stroke="black" points="16.5,-528.5 16.5,-564.5 197.5,-564.5 197.5,-528.5 16.5,-528.5"/>
<text text-anchor="middle" x="107" y="-542.8" font-family="Times,serif" font-size="14.00">adc &#160;&#160;&#160;0x10(%rdi),%rdx</text>
</g>
<!-- adc &#160;&#160;&#160;0x8(%rdi),%rdx&#45;&gt;adc &#160;&#160;&#160;0x10(%rdi),%rdx -->
<g id="edge2" class="edge">
<title>adc &#160;&#160;&#160;0x8(%rdi),%rdx&#45;&gt;adc &#160;&#160;&#160;0x10(%rdi),%rdx</title>
<path fill="none" stroke="black" d="M107,-601.31C107,-593.29 107,-583.55 107,-574.57"/>
<polygon fill="black" stroke="black" points="110.5,-574.53 107,-564.53 103.5,-574.53 110.5,-574.53"/>
</g>
<!-- adc &#160;&#160;&#160;0x18(%rdi),%rdx -->
<g id="node4" class="node">
<title>adc &#160;&#160;&#160;0x18(%rdi),%rdx</title>
<polygon fill="lightgrey" stroke="black" points="16.5,-455.5 16.5,-491.5 197.5,-491.5 197.5,-455.5 16.5,-455.5"/>
<text text-anchor="middle" x="107" y="-469.8" font-family="Times,serif" font-size="14.00">adc &#160;&#160;&#160;0x18(%rdi),%rdx</text>
</g>
<!-- adc &#160;&#160;&#160;0x10(%rdi),%rdx&#45;&gt;adc &#160;&#160;&#160;0x18(%rdi),%rdx -->
<g id="edge3" class="edge">
<title>adc &#160;&#160;&#160;0x10(%rdi),%rdx&#45;&gt;adc &#160;&#160;&#160;0x18(%rdi),%rdx</title>
<path fill="none" stroke="black" d="M107,-528.31C107,-520.29 107,-510.55 107,-501.57"/>
<polygon fill="black" stroke="black" points="110.5,-501.53 107,-491.53 103.5,-501.53 110.5,-501.53"/>
</g>
<!-- adc &#160;&#160;&#160;0x20(%rdi),%rdx -->
<g id="node5" class="node">
<title>adc &#160;&#160;&#160;0x20(%rdi),%rdx</title>
<polygon fill="lightgrey" stroke="black" points="16.5,-382.5 16.5,-418.5 197.5,-418.5 197.5,-382.5 16.5,-382.5"/>
<text text-anchor="middle" x="107" y="-396.8" font-family="Times,serif" font-size="14.00">adc &#160;&#160;&#160;0x20(%rdi),%rdx</text>
</g>
<!-- adc &#160;&#160;&#160;0x18(%rdi),%rdx&#45;&gt;adc &#160;&#160;&#160;0x20(%rdi),%rdx -->
<g id="edge4" class="edge">
<title>adc &#160;&#160;&#160;0x18(%rdi),%rdx&#45;&gt;adc &#160;&#160;&#160;0x20(%rdi),%rdx</title>
<path fill="none" stroke="black" d="M107,-455.31C107,-447.29 107,-437.55 107,-428.57"/>
<polygon fill="black" stroke="black" points="110.5,-428.53 107,-418.53 103.5,-428.53 110.5,-428.53"/>
</g>
<!-- mov &#160;&#160;&#160;%rdx,%rax -->
<g id="node6" class="node">
<title>mov &#160;&#160;&#160;%rdx,%rax</title>
<polygon fill="lightgrey" stroke="black" points="35.5,-298.5 35.5,-334.5 178.5,-334.5 178.5,-298.5 35.5,-298.5"/>
<text text-anchor="middle" x="107" y="-312.8" font-family="Times,serif" font-size="14.00">mov &#160;&#160;&#160;%rdx,%rax</text>
</g>
<!-- adc &#160;&#160;&#160;0x20(%rdi),%rdx&#45;&gt;mov &#160;&#160;&#160;%rdx,%rax -->
<g id="edge9" class="edge">
<title>adc &#160;&#160;&#160;0x20(%rdi),%rdx&#45;&gt;mov &#160;&#160;&#160;%rdx,%rax</title>
<path fill="none" stroke="black" d="M107,-382.11C107,-371.27 107,-357.1 107,-344.79"/>
<polygon fill="black" stroke="black" points="110.5,-344.58 107,-334.58 103.5,-344.58 110.5,-344.58"/>
</g>
<!-- shr &#160;&#160;&#160;$0x20,%rax -->
<g id="node7" class="node">
<title>shr &#160;&#160;&#160;$0x20,%rax</title>
<polygon fill="lightgrey" stroke="black" points="35.5,-225.5 35.5,-261.5 178.5,-261.5 178.5,-225.5 35.5,-225.5"/>
<text text-anchor="middle" x="107" y="-239.8" font-family="Times,serif" font-size="14.00">shr &#160;&#160;&#160;$0x20,%rax</text>
</g>
<!-- mov &#160;&#160;&#160;%rdx,%rax&#45;&gt;shr &#160;&#160;&#160;$0x20,%rax -->
<g id="edge5" class="edge">
<title>mov &#160;&#160;&#160;%rdx,%rax&#45;&gt;shr &#160;&#160;&#160;$0x20,%rax</title>
<path fill="none" stroke="black" d="M107,-298.31C107,-290.29 107,-280.55 107,-271.57"/>
<polygon fill="black" stroke="black" points="110.5,-271.53 107,-261.53 103.5,-271.53 110.5,-271.53"/>
</g>
<!-- add &#160;&#160;&#160;%edx,%eax -->
<g id="node8" class="node">
<title>add &#160;&#160;&#160;%edx,%eax</title>
<polygon fill="lightgrey" stroke="black" points="35.5,-152.5 35.5,-188.5 178.5,-188.5 178.5,-152.5 35.5,-152.5"/>
<text text-anchor="middle" x="107" y="-166.8" font-family="Times,serif" font-size="14.00">add &#160;&#160;&#160;%edx,%eax</text>
</g>
<!-- shr &#160;&#160;&#160;$0x20,%rax&#45;&gt;add &#160;&#160;&#160;%edx,%eax -->
<g id="edge6" class="edge">
<title>shr &#160;&#160;&#160;$0x20,%rax&#45;&gt;add &#160;&#160;&#160;%edx,%eax</title>
<path fill="none" stroke="black" d="M107,-225.31C107,-217.29 107,-207.55 107,-198.57"/>
<polygon fill="black" stroke="black" points="110.5,-198.53 107,-188.53 103.5,-198.53 110.5,-198.53"/>
</g>
<!-- adc &#160;&#160;&#160;$0x0,%eax -->
<g id="node9" class="node">
<title>adc &#160;&#160;&#160;$0x0,%eax</title>
<polygon fill="lightgrey" stroke="black" points="38.5,-79.5 38.5,-115.5 175.5,-115.5 175.5,-79.5 38.5,-79.5"/>
<text text-anchor="middle" x="107" y="-93.8" font-family="Times,serif" font-size="14.00">adc &#160;&#160;&#160;$0x0,%eax</text>
</g>
<!-- add &#160;&#160;&#160;%edx,%eax&#45;&gt;adc &#160;&#160;&#160;$0x0,%eax -->
<g id="edge7" class="edge">
<title>add &#160;&#160;&#160;%edx,%eax&#45;&gt;adc &#160;&#160;&#160;$0x0,%eax</title>
<path fill="none" stroke="black" d="M107,-152.31C107,-144.29 107,-134.55 107,-125.57"/>
<polygon fill="black" stroke="black" points="110.5,-125.53 107,-115.53 103.5,-125.53 110.5,-125.53"/>
</g>
<!-- end -->
<g id="node11" class="node">
<title>end</title>
<polygon fill="none" stroke="black" points="128.5,-43 85.5,-43 85.5,0 128.5,0 128.5,-43"/>
<polyline fill="none" stroke="black" points="97.5,-43 85.5,-31 "/>
<polyline fill="none" stroke="black" points="85.5,-12 97.5,0 "/>
<polyline fill="none" stroke="black" points="116.5,0 128.5,-12 "/>
<polyline fill="none" stroke="black" points="128.5,-31 116.5,-43 "/>
<text text-anchor="middle" x="107" y="-17.8" font-family="Times,serif" font-size="14.00">end</text>
</g>
<!-- adc &#160;&#160;&#160;$0x0,%eax&#45;&gt;end -->
<g id="edge10" class="edge">
<title>adc &#160;&#160;&#160;$0x0,%eax&#45;&gt;end</title>
<path fill="none" stroke="black" d="M107,-79.34C107,-71.6 107,-62.23 107,-53.34"/>
<polygon fill="black" stroke="black" points="110.5,-53.26 107,-43.26 103.5,-53.26 110.5,-53.26"/>
</g>
<!-- start -->
<g id="node10" class="node">
<title>start</title>
<polygon fill="none" stroke="black" points="107,-786 60.25,-768 107,-750 153.75,-768 107,-786"/>
<polyline fill="none" stroke="black" points="71.44,-772.31 71.44,-763.69 "/>
<polyline fill="none" stroke="black" points="95.8,-754.31 118.2,-754.31 "/>
<polyline fill="none" stroke="black" points="142.56,-763.69 142.56,-772.31 "/>
<polyline fill="none" stroke="black" points="118.2,-781.69 95.8,-781.69 "/>
<text text-anchor="middle" x="107" y="-764.3" font-family="Times,serif" font-size="14.00">start</text>
</g>
<!-- start&#45;&gt;add &#160;&#160;&#160;(%rdi),%rdx -->
<g id="edge8" class="edge">
<title>start&#45;&gt;add &#160;&#160;&#160;(%rdi),%rdx</title>
<path fill="none" stroke="black" d="M107,-749.95C107,-741.3 107,-730.57 107,-720.79"/>
<polygon fill="black" stroke="black" points="110.5,-720.71 107,-710.71 103.5,-720.71 110.5,-720.71"/>
</g>
</g>
</svg>
