<?xml version="1.0" encoding="UTF-8" standalone="no"?>
<!DOCTYPE svg PUBLIC "-//W3C//DTD SVG 1.1//EN"
 "http://www.w3.org/Graphics/SVG/1.1/DTD/svg11.dtd">
<!-- Generated by graphviz version 2.43.0 (0)
 -->
<!-- Title: G Pages: 1 -->
<svg width="102pt" height="415pt"
 viewBox="0.00 0.00 101.75 415.00" xmlns="http://www.w3.org/2000/svg" xmlns:xlink="http://www.w3.org/1999/xlink">
<g id="graph0" class="graph" transform="scale(1 1) rotate(0) translate(4 411)">
<title>G</title>
<polygon fill="white" stroke="transparent" points="-4,4 -4,-411 97.75,-411 97.75,4 -4,4"/>
<!-- start -->
<g id="node1" class="node">
<title>start</title>
<polygon fill="none" stroke="black" points="46.88,-407 0.12,-389 46.88,-371 93.63,-389 46.88,-407"/>
<polyline fill="none" stroke="black" points="11.32,-393.31 11.32,-384.69 "/>
<polyline fill="none" stroke="black" points="35.68,-375.31 58.08,-375.31 "/>
<polyline fill="none" stroke="black" points="82.43,-384.69 82.43,-393.31 "/>
<polyline fill="none" stroke="black" points="58.08,-402.69 35.68,-402.69 "/>
<text text-anchor="middle" x="46.88" y="-385.3" font-family="Times,serif" font-size="14.00">start</text>
</g>
<!-- A -->
<g id="node2" class="node">
<title>A</title>
<polygon fill="none" stroke="black" points="19.88,-298.5 19.88,-334.5 73.88,-334.5 73.88,-298.5 19.88,-298.5"/>
<text text-anchor="middle" x="46.88" y="-312.8" font-family="Times,serif" font-size="14.00">A</text>
</g>
<!-- start&#45;&gt;A -->
<g id="edge1" class="edge">
<title>start&#45;&gt;A</title>
<path fill="none" stroke="black" d="M46.88,-370.93C46.88,-363.17 46.88,-353.78 46.88,-345.06"/>
<polygon fill="black" stroke="black" points="50.38,-344.9 46.88,-334.9 43.38,-344.9 50.38,-344.9"/>
</g>
<!-- + B -->
<g id="node3" class="node">
<title>+ B</title>
<polygon fill="none" stroke="black" points="19.88,-225.5 19.88,-261.5 73.88,-261.5 73.88,-225.5 19.88,-225.5"/>
<text text-anchor="middle" x="46.88" y="-239.8" font-family="Times,serif" font-size="14.00">+ B</text>
</g>
<!-- A&#45;&gt;+ B -->
<g id="edge2" class="edge">
<title>A&#45;&gt;+ B</title>
<path fill="none" stroke="black" d="M46.88,-298.31C46.88,-290.29 46.88,-280.55 46.88,-271.57"/>
<polygon fill="black" stroke="black" points="50.38,-271.53 46.88,-261.53 43.38,-271.53 50.38,-271.53"/>
</g>
<!-- + C -->
<g id="node4" class="node">
<title>+ C</title>
<polygon fill="none" stroke="black" points="19.88,-152.5 19.88,-188.5 73.88,-188.5 73.88,-152.5 19.88,-152.5"/>
<text text-anchor="middle" x="46.88" y="-166.8" font-family="Times,serif" font-size="14.00">+ C</text>
</g>
<!-- + B&#45;&gt;+ C -->
<g id="edge3" class="edge">
<title>+ B&#45;&gt;+ C</title>
<path fill="none" stroke="black" d="M46.88,-225.31C46.88,-217.29 46.88,-207.55 46.88,-198.57"/>
<polygon fill="black" stroke="black" points="50.38,-198.53 46.88,-188.53 43.38,-198.53 50.38,-198.53"/>
</g>
<!-- + D -->
<g id="node5" class="node">
<title>+ D</title>
<polygon fill="none" stroke="black" points="19.88,-79.5 19.88,-115.5 73.88,-115.5 73.88,-79.5 19.88,-79.5"/>
<text text-anchor="middle" x="46.88" y="-93.8" font-family="Times,serif" font-size="14.00">+ D</text>
</g>
<!-- + C&#45;&gt;+ D -->
<g id="edge4" class="edge">
<title>+ C&#45;&gt;+ D</title>
<path fill="none" stroke="black" d="M46.88,-152.31C46.88,-144.29 46.88,-134.55 46.88,-125.57"/>
<polygon fill="black" stroke="black" points="50.38,-125.53 46.88,-115.53 43.38,-125.53 50.38,-125.53"/>
</g>
<!-- end -->
<g id="node6" class="node">
<title>end</title>
<polygon fill="none" stroke="black" points="68.38,-43 25.38,-43 25.38,0 68.38,0 68.38,-43"/>
<polyline fill="none" stroke="black" points="37.38,-43 25.38,-31 "/>
<polyline fill="none" stroke="black" points="25.38,-12 37.38,0 "/>
<polyline fill="none" stroke="black" points="56.38,0 68.38,-12 "/>
<polyline fill="none" stroke="black" points="68.38,-31 56.38,-43 "/>
<text text-anchor="middle" x="46.88" y="-17.8" font-family="Times,serif" font-size="14.00">end</text>
</g>
<!-- + D&#45;&gt;end -->
<g id="edge5" class="edge">
<title>+ D&#45;&gt;end</title>
<path fill="none" stroke="black" d="M46.88,-79.34C46.88,-71.6 46.88,-62.23 46.88,-53.34"/>
<polygon fill="black" stroke="black" points="50.38,-53.26 46.88,-43.26 43.38,-53.26 50.38,-53.26"/>
</g>
</g>
</svg>
