<?xml version="1.0" encoding="UTF-8" standalone="no"?>
<!DOCTYPE svg PUBLIC "-//W3C//DTD SVG 1.1//EN"
 "http://www.w3.org/Graphics/SVG/1.1/DTD/svg11.dtd">
<!-- Generated by graphviz version 2.43.0 (0)
 -->
<!-- Title: G Pages: 1 -->
<svg width="164pt" height="269pt"
 viewBox="0.00 0.00 164.00 269.00" xmlns="http://www.w3.org/2000/svg" xmlns:xlink="http://www.w3.org/1999/xlink">
<g id="graph0" class="graph" transform="scale(1 1) rotate(0) translate(4 265)">
<title>G</title>
<polygon fill="white" stroke="transparent" points="-4,4 -4,-265 160,-265 160,4 -4,4"/>
<!-- start -->
<g id="node1" class="node">
<title>start</title>
<polygon fill="none" stroke="black" points="77,-261 30.25,-243 77,-225 123.75,-243 77,-261"/>
<polyline fill="none" stroke="black" points="41.44,-247.31 41.44,-238.69 "/>
<polyline fill="none" stroke="black" points="65.8,-229.31 88.2,-229.31 "/>
<polyline fill="none" stroke="black" points="112.56,-238.69 112.56,-247.31 "/>
<polyline fill="none" stroke="black" points="88.2,-256.69 65.8,-256.69 "/>
<text text-anchor="middle" x="77" y="-239.3" font-family="Times,serif" font-size="14.00">start</text>
</g>
<!-- (A + B) -->
<g id="node2" class="node">
<title>(A + B)</title>
<polygon fill="none" stroke="black" points="0,-152.5 0,-188.5 68,-188.5 68,-152.5 0,-152.5"/>
<text text-anchor="middle" x="34" y="-166.8" font-family="Times,serif" font-size="14.00">(A + B)</text>
</g>
<!-- start&#45;&gt;(A + B) -->
<g id="edge1" class="edge">
<title>start&#45;&gt;(A + B)</title>
<path fill="none" stroke="black" d="M68.5,-228.07C63.17,-219.32 56.11,-207.76 49.78,-197.37"/>
<polygon fill="black" stroke="black" points="52.65,-195.36 44.45,-188.64 46.67,-199 52.65,-195.36"/>
</g>
<!-- (C + D) -->
<g id="node3" class="node">
<title>(C + D)</title>
<polygon fill="none" stroke="black" points="86,-152.5 86,-188.5 156,-188.5 156,-152.5 86,-152.5"/>
<text text-anchor="middle" x="121" y="-166.8" font-family="Times,serif" font-size="14.00">(C + D)</text>
</g>
<!-- start&#45;&gt;(C + D) -->
<g id="edge2" class="edge">
<title>start&#45;&gt;(C + D)</title>
<path fill="none" stroke="black" d="M85.69,-228.07C91.16,-219.32 98.37,-207.76 104.86,-197.37"/>
<polygon fill="black" stroke="black" points="107.98,-198.98 110.3,-188.64 102.04,-195.27 107.98,-198.98"/>
</g>
<!-- + -->
<g id="node4" class="node">
<title>+</title>
<polygon fill="none" stroke="black" points="50,-79.5 50,-115.5 104,-115.5 104,-79.5 50,-79.5"/>
<text text-anchor="middle" x="77" y="-93.8" font-family="Times,serif" font-size="14.00">+</text>
</g>
<!-- (A + B)&#45;&gt;+ -->
<g id="edge3" class="edge">
<title>(A + B)&#45;&gt;+</title>
<path fill="none" stroke="black" d="M44.41,-152.31C49.53,-143.85 55.81,-133.48 61.49,-124.11"/>
<polygon fill="black" stroke="black" points="64.5,-125.9 66.69,-115.53 58.51,-122.27 64.5,-125.9"/>
</g>
<!-- (C + D)&#45;&gt;+ -->
<g id="edge4" class="edge">
<title>(C + D)&#45;&gt;+</title>
<path fill="none" stroke="black" d="M110.35,-152.31C105.11,-143.85 98.68,-133.48 92.87,-124.11"/>
<polygon fill="black" stroke="black" points="95.8,-122.19 87.55,-115.53 89.85,-125.87 95.8,-122.19"/>
</g>
<!-- end -->
<g id="node5" class="node">
<title>end</title>
<polygon fill="none" stroke="black" points="98.5,-43 55.5,-43 55.5,0 98.5,0 98.5,-43"/>
<polyline fill="none" stroke="black" points="67.5,-43 55.5,-31 "/>
<polyline fill="none" stroke="black" points="55.5,-12 67.5,0 "/>
<polyline fill="none" stroke="black" points="86.5,0 98.5,-12 "/>
<polyline fill="none" stroke="black" points="98.5,-31 86.5,-43 "/>
<text text-anchor="middle" x="77" y="-17.8" font-family="Times,serif" font-size="14.00">end</text>
</g>
<!-- +&#45;&gt;end -->
<g id="edge5" class="edge">
<title>+&#45;&gt;end</title>
<path fill="none" stroke="black" d="M77,-79.34C77,-71.6 77,-62.23 77,-53.34"/>
<polygon fill="black" stroke="black" points="80.5,-53.26 77,-43.26 73.5,-53.26 80.5,-53.26"/>
</g>
</g>
</svg>
