<?xml version="1.0" encoding="UTF-8" standalone="no"?>
<!DOCTYPE svg PUBLIC "-//W3C//DTD SVG 1.1//EN"
 "http://www.w3.org/Graphics/SVG/1.1/DTD/svg11.dtd">
<!-- Generated by graphviz version 2.43.0 (0)
 -->
<!-- Title: main Pages: 1 -->
<svg width="189pt" height="702pt"
 viewBox="0.00 0.00 189.00 702.00" xmlns="http://www.w3.org/2000/svg" xmlns:xlink="http://www.w3.org/1999/xlink">
<g id="graph0" class="graph" transform="scale(1 1) rotate(0) translate(4 698)">
<title>main</title>
<polygon fill="white" stroke="transparent" points="-4,4 -4,-698 185,-698 185,4 -4,4"/>
<!-- add &#160;&#160;&#160;(%rdi),%rdx -->
<g id="node1" class="node">
<title>add &#160;&#160;&#160;(%rdi),%rdx</title>
<polygon fill="none" stroke="black" points="17,-657.5 17,-693.5 164,-693.5 164,-657.5 17,-657.5"/>
<text text-anchor="middle" x="90.5" y="-671.8" font-family="Times,serif" font-size="14.00">add &#160;&#160;&#160;(%rdi),%rdx</text>
</g>
<!-- adc &#160;&#160;&#160;0x8(%rdi),%rdx -->
<g id="node2" class="node">
<title>adc &#160;&#160;&#160;0x8(%rdi),%rdx</title>
<polygon fill="none" stroke="black" points="4.5,-584.5 4.5,-620.5 176.5,-620.5 176.5,-584.5 4.5,-584.5"/>
<text text-anchor="middle" x="90.5" y="-598.8" font-family="Times,serif" font-size="14.00">adc &#160;&#160;&#160;0x8(%rdi),%rdx</text>
</g>
<!-- add &#160;&#160;&#160;(%rdi),%rdx&#45;&gt;adc &#160;&#160;&#160;0x8(%rdi),%rdx -->
<g id="edge1" class="edge">
<title>add &#160;&#160;&#160;(%rdi),%rdx&#45;&gt;adc &#160;&#160;&#160;0x8(%rdi),%rdx</title>
<path fill="none" stroke="black" d="M90.5,-657.31C90.5,-649.29 90.5,-639.55 90.5,-630.57"/>
<polygon fill="black" stroke="black" points="94,-630.53 90.5,-620.53 87,-630.53 94,-630.53"/>
</g>
<!-- adc &#160;&#160;&#160;0x10(%rdi),%rdx -->
<g id="node3" class="node">
<title>adc &#160;&#160;&#160;0x10(%rdi),%rdx</title>
<polygon fill="none" stroke="black" points="0,-511.5 0,-547.5 181,-547.5 181,-511.5 0,-511.5"/>
<text text-anchor="middle" x="90.5" y="-525.8" font-family="Times,serif" font-size="14.00">adc &#160;&#160;&#160;0x10(%rdi),%rdx</text>
</g>
<!-- adc &#160;&#160;&#160;0x8(%rdi),%rdx&#45;&gt;adc &#160;&#160;&#160;0x10(%rdi),%rdx -->
<g id="edge2" class="edge">
<title>adc &#160;&#160;&#160;0x8(%rdi),%rdx&#45;&gt;adc &#160;&#160;&#160;0x10(%rdi),%rdx</title>
<path fill="none" stroke="black" d="M90.5,-584.31C90.5,-576.29 90.5,-566.55 90.5,-557.57"/>
<polygon fill="black" stroke="black" points="94,-557.53 90.5,-547.53 87,-557.53 94,-557.53"/>
</g>
<!-- adc &#160;&#160;&#160;0x18(%rdi),%rdx -->
<g id="node4" class="node">
<title>adc &#160;&#160;&#160;0x18(%rdi),%rdx</title>
<polygon fill="none" stroke="black" points="0,-438.5 0,-474.5 181,-474.5 181,-438.5 0,-438.5"/>
<text text-anchor="middle" x="90.5" y="-452.8" font-family="Times,serif" font-size="14.00">adc &#160;&#160;&#160;0x18(%rdi),%rdx</text>
</g>
<!-- adc &#160;&#160;&#160;0x10(%rdi),%rdx&#45;&gt;adc &#160;&#160;&#160;0x18(%rdi),%rdx -->
<g id="edge3" class="edge">
<title>adc &#160;&#160;&#160;0x10(%rdi),%rdx&#45;&gt;adc &#160;&#160;&#160;0x18(%rdi),%rdx</title>
<path fill="none" stroke="black" d="M90.5,-511.31C90.5,-503.29 90.5,-493.55 90.5,-484.57"/>
<polygon fill="black" stroke="black" points="94,-484.53 90.5,-474.53 87,-484.53 94,-484.53"/>
</g>
<!-- adc &#160;&#160;&#160;0x20(%rdi),%rdx -->
<g id="node5" class="node">
<title>adc &#160;&#160;&#160;0x20(%rdi),%rdx</title>
<polygon fill="none" stroke="black" points="0,-365.5 0,-401.5 181,-401.5 181,-365.5 0,-365.5"/>
<text text-anchor="middle" x="90.5" y="-379.8" font-family="Times,serif" font-size="14.00">adc &#160;&#160;&#160;0x20(%rdi),%rdx</text>
</g>
<!-- adc &#160;&#160;&#160;0x18(%rdi),%rdx&#45;&gt;adc &#160;&#160;&#160;0x20(%rdi),%rdx -->
<g id="edge4" class="edge">
<title>adc &#160;&#160;&#160;0x18(%rdi),%rdx&#45;&gt;adc &#160;&#160;&#160;0x20(%rdi),%rdx</title>
<path fill="none" stroke="black" d="M90.5,-438.31C90.5,-430.29 90.5,-420.55 90.5,-411.57"/>
<polygon fill="black" stroke="black" points="94,-411.53 90.5,-401.53 87,-411.53 94,-411.53"/>
</g>
<!-- adc &#160;&#160;&#160;$0x0,%rdx -->
<g id="node6" class="node">
<title>adc &#160;&#160;&#160;$0x0,%rdx</title>
<polygon fill="none" stroke="black" points="22,-292.5 22,-328.5 159,-328.5 159,-292.5 22,-292.5"/>
<text text-anchor="middle" x="90.5" y="-306.8" font-family="Times,serif" font-size="14.00">adc &#160;&#160;&#160;$0x0,%rdx</text>
</g>
<!-- adc &#160;&#160;&#160;0x20(%rdi),%rdx&#45;&gt;adc &#160;&#160;&#160;$0x0,%rdx -->
<g id="edge5" class="edge">
<title>adc &#160;&#160;&#160;0x20(%rdi),%rdx&#45;&gt;adc &#160;&#160;&#160;$0x0,%rdx</title>
<path fill="none" stroke="black" d="M90.5,-365.31C90.5,-357.29 90.5,-347.55 90.5,-338.57"/>
<polygon fill="black" stroke="black" points="94,-338.53 90.5,-328.53 87,-338.53 94,-338.53"/>
</g>
<!-- mov &#160;&#160;&#160;%rdx,%rax -->
<g id="node7" class="node">
<title>mov &#160;&#160;&#160;%rdx,%rax</title>
<polygon fill="none" stroke="black" points="19,-219.5 19,-255.5 162,-255.5 162,-219.5 19,-219.5"/>
<text text-anchor="middle" x="90.5" y="-233.8" font-family="Times,serif" font-size="14.00">mov &#160;&#160;&#160;%rdx,%rax</text>
</g>
<!-- adc &#160;&#160;&#160;$0x0,%rdx&#45;&gt;mov &#160;&#160;&#160;%rdx,%rax -->
<g id="edge6" class="edge">
<title>adc &#160;&#160;&#160;$0x0,%rdx&#45;&gt;mov &#160;&#160;&#160;%rdx,%rax</title>
<path fill="none" stroke="black" d="M90.5,-292.31C90.5,-284.29 90.5,-274.55 90.5,-265.57"/>
<polygon fill="black" stroke="black" points="94,-265.53 90.5,-255.53 87,-265.53 94,-265.53"/>
</g>
<!-- shr &#160;&#160;&#160;$0x20,%rax -->
<g id="node8" class="node">
<title>shr &#160;&#160;&#160;$0x20,%rax</title>
<polygon fill="none" stroke="black" points="19,-146.5 19,-182.5 162,-182.5 162,-146.5 19,-146.5"/>
<text text-anchor="middle" x="90.5" y="-160.8" font-family="Times,serif" font-size="14.00">shr &#160;&#160;&#160;$0x20,%rax</text>
</g>
<!-- mov &#160;&#160;&#160;%rdx,%rax&#45;&gt;shr &#160;&#160;&#160;$0x20,%rax -->
<g id="edge7" class="edge">
<title>mov &#160;&#160;&#160;%rdx,%rax&#45;&gt;shr &#160;&#160;&#160;$0x20,%rax</title>
<path fill="none" stroke="black" d="M90.5,-219.31C90.5,-211.29 90.5,-201.55 90.5,-192.57"/>
<polygon fill="black" stroke="black" points="94,-192.53 90.5,-182.53 87,-192.53 94,-192.53"/>
</g>
<!-- add &#160;&#160;&#160;%edx,%eax -->
<g id="node9" class="node">
<title>add &#160;&#160;&#160;%edx,%eax</title>
<polygon fill="none" stroke="black" points="19,-73.5 19,-109.5 162,-109.5 162,-73.5 19,-73.5"/>
<text text-anchor="middle" x="90.5" y="-87.8" font-family="Times,serif" font-size="14.00">add &#160;&#160;&#160;%edx,%eax</text>
</g>
<!-- shr &#160;&#160;&#160;$0x20,%rax&#45;&gt;add &#160;&#160;&#160;%edx,%eax -->
<g id="edge8" class="edge">
<title>shr &#160;&#160;&#160;$0x20,%rax&#45;&gt;add &#160;&#160;&#160;%edx,%eax</title>
<path fill="none" stroke="black" d="M90.5,-146.31C90.5,-138.29 90.5,-128.55 90.5,-119.57"/>
<polygon fill="black" stroke="black" points="94,-119.53 90.5,-109.53 87,-119.53 94,-119.53"/>
</g>
<!-- adc &#160;&#160;&#160;$0x0,%eax -->
<g id="node10" class="node">
<title>adc &#160;&#160;&#160;$0x0,%eax</title>
<polygon fill="none" stroke="black" points="22,-0.5 22,-36.5 159,-36.5 159,-0.5 22,-0.5"/>
<text text-anchor="middle" x="90.5" y="-14.8" font-family="Times,serif" font-size="14.00">adc &#160;&#160;&#160;$0x0,%eax</text>
</g>
<!-- add &#160;&#160;&#160;%edx,%eax&#45;&gt;adc &#160;&#160;&#160;$0x0,%eax -->
<g id="edge9" class="edge">
<title>add &#160;&#160;&#160;%edx,%eax&#45;&gt;adc &#160;&#160;&#160;$0x0,%eax</title>
<path fill="none" stroke="black" d="M90.5,-73.31C90.5,-65.29 90.5,-55.55 90.5,-46.57"/>
<polygon fill="black" stroke="black" points="94,-46.53 90.5,-36.53 87,-46.53 94,-46.53"/>
</g>
</g>
</svg>
